<svg xmlns="http://www.w3.org/2000/svg" viewBox="0 0 1600 900" role="img" aria-labelledby="title desc">
  <title id="title">Wildlife</title>
  <desc id="desc">A safari illustration for the Wildlife category.</desc>
  <defs>
    <linearGradient id="bg" x1="0" y1="0" x2="1" y2="1">
      <stop offset="0%" stop-color="#24311c"/>
      <stop offset="55%" stop-color="#5d7b35"/>
      <stop offset="100%" stop-color="#d1c16d"/>
    </linearGradient>
  </defs>
  <rect width="1600" height="900" fill="url(#bg)"/>
  <circle cx="1210" cy="180" r="110" fill="#fff3c4" fill-opacity="0.6"/>
  <path d="M0 760C220 710 360 690 540 740C720 790 930 790 1110 730C1270 680 1410 670 1600 720V900H0Z" fill="#dfe8bb" fill-opacity="0.75"/>
  <path d="M250 690C300 560 430 540 500 640C570 740 430 820 320 790C240 770 220 730 250 690Z" fill="#f7f0e6" fill-opacity="0.88"/>
  <path d="M980 700C1030 590 1160 570 1230 670C1300 770 1160 840 1050 810C970 790 950 740 980 700Z" fill="#f7f0e6" fill-opacity="0.88"/>
  <rect x="96" y="96" width="520" height="220" rx="34" fill="#fff7ee" fill-opacity="0.78"/>
  <text x="130" y="182" font-family="Georgia, serif" font-size="72" fill="#1a1714">Wildlife</text>
  <text x="130" y="245" font-family="Arial, sans-serif" font-size="30" fill="#5a4c3a">National parks, safaris, and forest immersion</text>
</svg>
