<svg width="180" height="180" viewBox="0 0 180 180" fill="none" xmlns="http://www.w3.org/2000/svg">
	<defs>
		<linearGradient id="gold" x1="38" y1="26" x2="144" y2="152" gradientUnits="userSpaceOnUse">
			<stop offset="0" stop-color="#FFF4C7"/>
			<stop offset="0.36" stop-color="#E8C77A"/>
			<stop offset="0.7" stop-color="#C9A96E"/>
			<stop offset="1" stop-color="#8B6630"/>
		</linearGradient>
		<radialGradient id="glow" cx="0" cy="0" r="1" gradientUnits="userSpaceOnUse" gradientTransform="translate(90 90) rotate(90) scale(54)">
			<stop stop-color="#FFF5D6" stop-opacity="0.75"/>
			<stop offset="1" stop-color="#FFF5D6" stop-opacity="0"/>
		</radialGradient>
	</defs>
	<rect width="180" height="180" rx="36" fill="#0F0D0A"/>
	<circle cx="90" cy="90" r="60" fill="url(#glow)" opacity="0.25"/>
	<circle cx="90" cy="90" r="57" stroke="url(#gold)" stroke-width="10"/>
	<path d="M61 96C61 77 74 62 90 62C106 62 119 76 119 93C119 110 106 123 89 123C75 123 64 114 60 101" stroke="url(#gold)" stroke-width="12" stroke-linecap="round" stroke-linejoin="round"/>
	<path d="M61 67H78V113H61" stroke="url(#gold)" stroke-width="8" stroke-linecap="round" stroke-linejoin="round"/>
	<path d="M102 67H119V113H102" stroke="url(#gold)" stroke-width="8" stroke-linecap="round" stroke-linejoin="round"/>
	<path d="M78 67L90 53L102 67" stroke="url(#gold)" stroke-width="8" stroke-linecap="round" stroke-linejoin="round"/>
	<path d="M74 107C81 113 89 116 97 116C104 116 110 114 115 110" stroke="#FFF7DC" stroke-opacity="0.7" stroke-width="4" stroke-linecap="round"/>
</svg>
