<svg width="180" height="180" viewBox="0 0 180 180" fill="none" xmlns="http://www.w3.org/2000/svg">
	<rect width="180" height="180" rx="36" fill="transparent"/>
	<g transform="translate(35 26) scale(1.55)">
		<g stroke="#C9A96E" stroke-width="2.5" stroke-linecap="round" stroke-linejoin="round">
			<path d="M25 25 C 25 15, 45 15, 45 25 Z" />
			<path d="M20 25 L 50 25" />

			<path d="M18 35 C 10 35, 10 65, 18 65" />
			<path d="M15 45 C 12 45, 12 55, 15 55" />

			<path d="M30 25 L 25 70 L 45 70 L 40 25" />

			<path d="M30 70 L 28 90 M 40 70 L 42 90" />

			<path d="M45 40 L 60 35 L 65 50 L 50 55 Z" />
			<path d="M35 45 L 45 40 M 35 45 L 50 55" />
			<path d="M52 38 L 56 46" />

			<path d="M70 30 L 70 90" />
			<path d="M60 40 L 75 40 L 80 45 L 75 50 L 60 50 Z" />
			<path d="M80 60 L 65 60 L 60 65 L 65 70 L 80 70 Z" />
		</g>
	</g>
</svg>
